<?xml version="1.0" standalone="no"?>
<!DOCTYPE svg PUBLIC "-//W3C//DTD SVG 20010904//EN"
 "http://www.w3.org/TR/2001/REC-SVG-20010904/DTD/svg10.dtd">
<svg version="1.0" xmlns="http://www.w3.org/2000/svg"
 width="180.000000pt" height="180.000000pt" viewBox="0 0 180.000000 180.000000"
 preserveAspectRatio="xMidYMid meet">
<metadata>
Created by potrace 1.11, written by Peter Selinger 2001-2013
</metadata>
<g transform="translate(0.000000,180.000000) scale(0.100000,-0.100000)"
fill="#000000" stroke="none">
<path d="M615 991 c-6 -4 -40 -15 -76 -24 -36 -9 -73 -19 -81 -22 -9 -4 -24 2
-34 13 -21 21 -61 23 -74 3 -6 -10 -9 -10 -15 -1 -9 15 -75 -55 -75 -81 0 -25
-41 -67 -79 -80 -17 -6 -31 -17 -31 -23 0 -7 -9 -21 -20 -31 -16 -14 -17 -21
-8 -32 9 -11 9 -16 -3 -23 -11 -8 -12 -13 -2 -28 9 -15 9 -22 0 -31 -9 -9 -9
-14 -1 -19 14 -9 16 -72 3 -72 -5 0 -12 6 -15 14 -3 8 -17 22 -31 31 -24 16
-26 16 -49 -6 -31 -29 -28 -66 8 -85 31 -16 55 -10 63 17 7 21 35 26 35 7 0
-9 4 -8 10 2 8 12 10 10 11 -10 1 -14 1 -33 0 -42 -1 -10 7 -18 21 -20 13 -2
22 -9 20 -17 -4 -18 26 -38 68 -45 20 -3 50 -12 66 -21 16 -8 66 -17 109 -19
44 -3 102 -7 130 -9 27 -2 63 -1 80 2 16 4 48 4 70 1 22 -3 51 -2 65 3 34 12
141 11 149 -1 8 -14 58 -3 65 13 3 8 -4 25 -14 38 -19 24 -19 24 8 44 26 19
30 19 56 6 78 -41 158 10 112 72 -16 22 -91 32 -112 14 -10 -8 -14 -8 -14 0 0
6 -5 11 -10 11 -7 0 -7 -6 0 -20 6 -11 8 -20 4 -20 -3 0 -1 -7 6 -15 7 -9 10
-18 7 -21 -9 -9 -27 6 -27 22 0 8 -4 12 -10 9 -5 -3 -10 -1 -10 4 0 6 4 11 10
11 5 0 7 7 3 16 -5 15 -7 15 -15 0 -5 -9 -16 -16 -26 -16 -11 0 -2 13 27 39
39 35 41 40 26 55 -9 9 -20 16 -24 16 -12 0 -11 44 2 61 7 8 20 18 30 22 28
10 32 36 8 56 -11 10 -21 23 -21 28 0 5 -22 16 -50 23 -48 13 -60 23 -41 34 5
4 12 0 14 -6 4 -10 6 -10 6 0 1 7 5 10 11 7 5 -3 22 1 38 9 16 8 33 12 36 8 4
-3 4 2 0 12 -4 11 -9 14 -14 6 -3 -6 -14 -8 -22 -5 -9 4 -19 1 -23 -4 -3 -6
-11 -9 -16 -5 -6 3 -19 -2 -29 -11 -22 -20 -27 -14 -32 40 -3 28 -6 30 -42 30
-22 0 -41 5 -43 13 -3 6 -13 12 -22 12 -10 0 -32 7 -50 16 -18 9 -42 13 -55
10 -16 -4 -26 -1 -30 9 -6 17 -17 19 -31 6z m-425 -430 c0 -5 -14 -14 -30 -20
-21 -7 -29 -7 -24 0 5 8 33 24 52 28 1 1 2 -3 2 -8z"/>
<path d="M1083 940 c-16 -7 -22 -17 -21 -35 2 -21 7 -25 35 -25 38 0 50 18 33
49 -12 23 -15 24 -47 11z"/>
<path d="M158 928 c-9 -7 -19 -23 -23 -35 -8 -30 35 -54 60 -33 10 8 15 9 15
1 0 -6 3 -11 8 -11 9 0 7 64 -3 79 -8 15 -38 14 -57 -1z"/>
<path d="M1035 891 c-3 -5 -2 -12 3 -15 5 -3 9 1 9 9 0 17 -3 19 -12 6z"/>
</g>
</svg>
